<?xml version="1.0" encoding="iso-8859-1"?>
<!-- Generator: Adobe Illustrator 16.0.4, SVG Export Plug-In . SVG Version: 6.00 Build 0)  -->
<!DOCTYPE svg PUBLIC "-//W3C//DTD SVG 1.1//EN" "http://www.w3.org/Graphics/SVG/1.1/DTD/svg11.dtd">
<svg version="1.1" id="Layer_1" xmlns="http://www.w3.org/2000/svg" xmlns:xlink="http://www.w3.org/1999/xlink" x="0px" y="0px"
	 width="394.5px" height="126.5px" viewBox="0 0 394.5 126.5" style="enable-background:new 0 0 394.5 126.5;" xml:space="preserve"
	>
<g>
	<path style="fill:#8B408F;stroke:#6C0082;stroke-miterlimit:10;" d="M78.787,107.996l0.372-5.411l2.104-5.251l3.003-3.328
		l3.317-1.924l4.257-0.561c2.378,0.962,3.472,1.205,4.168,1.363c0.47,0.105,3.64,3.046,3.64,3.046l2.025,4.169l1.086,4.77
		l-0.097,3.141L78.787,107.996z"/>
	<path style="fill:#8B408F;stroke:#6C0082;stroke-miterlimit:10;" d="M71.884,108.003l0.26-2.795l1.47-2.712l2.099-1.719
		l2.317-0.994l2.975-0.289c1.662,0.497,2.426,0.622,2.913,0.704c0.328,0.055,2.543,1.573,2.543,1.573l1.415,2.153l0.759,2.463
		l-0.068,1.622L71.884,108.003z"/>
	<path style="fill:#8B408F;stroke:#6C0082;stroke-miterlimit:10;" d="M93.217,107.999l0.26-4.285l1.47-4.158l2.099-2.636
		l2.317-1.524l2.975-0.443c1.662,0.762,2.426,0.954,2.913,1.08c0.328,0.083,2.543,2.412,2.543,2.412l1.415,3.302l0.759,3.776
		l-0.068,2.487L93.217,107.999z"/>
</g>
<path style="fill:#EA3B54;stroke:#FF807D;stroke-miterlimit:10;" d="M230.759,107.988l0.808-8.438l4.575-8.188l6.531-5.188l7.212-3
	l9.255-0.875c5.17,1.5,7.551,1.879,9.064,2.125c1.021,0.166,7.915,4.75,7.915,4.75l4.404,6.5l2.362,7.438l-0.212,4.896
	L230.759,107.988z"/>
<path style="fill:#B2EDEA;stroke:#55C3C3;stroke-linejoin:bevel;stroke-miterlimit:10;" d="M109.743,105.733
	c-0.004-9.475-0.006-27.051-0.006-34.348c0-7.203,2.196-11.338-0.3-21.514c-1.728,11.527-12.481,9.416-18.242,15.171
	c2.113,0,3.793,6.146,3.793,9.847c0,13.342,0.047,29.727,0.047,29.727c-0.006,6.468-3.805,7.664-3.805,7.664
	s3.469-0.383,5.437-0.383c6,0,10.586,6.6,16.851,0.336C112.544,112.233,109.924,110.878,109.743,105.733z"/>
<path style="fill:#B2EDEA;stroke:#55C3C3;stroke-linejoin:bevel;stroke-miterlimit:10;" d="M316.266,105.733
	c-0.004-9.475-0.012-25.887-0.006-25.887c0-7.202,2.197-17.492-0.3-27.669c-6.145,8.929-12.626,5.04-18.819,9.216
	c5.113,0.648,4.393,20.355,4.393,15.171s0.023,28.052,0.023,28.052c-0.006,6.468-3.805,7.664-3.805,7.664s6.158,0,8.895,1.824
	c4.992,3.33,11.018,7.562,17.283,1.297C322.956,115.401,316.266,116.121,316.266,105.733z"/>
<path style="fill:#B2EDEA;stroke:#55C3C3;stroke-linejoin:bevel;stroke-miterlimit:10;" d="M203.723,70.611
	c-8.149,0-14.333,4.049-18.004,6.693c0.193-2.597,0.298-4.722-0.119-6.766c-7.417,5.761-11.954,0.792-19.275,5.112
	c5.305,2.305,4.825,10.777,4.825,10.777s0.01,0,0.023,0v16.658c0,4.305-4.032,7.902-5.521,9.151
	c2.857-0.479,5.666-0.294,7.634-0.294c6,0,6.985,5.81,14.906,0.289c-0.973,0-2.706-3.641-2.887-8.785
	c-0.004-9.475-0.012-17.649-0.005-17.649c0-1.64,0.058-3.115,0.136-4.474c0.039-2.15,3.332-4.568,7.149-4.568
	c3.84,0,6.049,5.761,6.049,18.529c0,12.77-1.248,29.093-7.777,29.093c13.25,0,22.323-8.45,22.323-21.22
	S215.82,70.611,203.723,70.611z"/>
<path style="fill:#B2EDEA;stroke:#55C3C3;stroke-linejoin:bevel;stroke-miterlimit:10;" d="M260.992,99.847
	c0-9.475,0.055-26.577,0.061-26.577c0-7.202,1.092-20.372,0.301-24.261c-8.102,8.101-11.954,3.96-19.275,8.281
	c4.412,1.916,4.822,12.125,4.836,15.512c-1.947-1.047-5.289-2.19-11.85-2.19c-12.098,0-16.073,12.002-16.073,24.771
	c0,21.23,22.249,21.057,28.866,12.359c1.422,6.705,13.231,7.617,18.56,1.232C263.249,109.982,260.992,107.726,260.992,99.847z
	 M233.537,95.286c0-12.769,0.765-21.122,7.822-21.122c3.331,0,5.145,1.661,5.566,3.513v25.051c0,0.748,0.05,1.452,0.144,2.115
	C243.971,110.312,233.537,107.694,233.537,95.286z"/>
<g>
	<path style="fill:#B2EDEA;stroke:#55C3C3;stroke-linejoin:bevel;stroke-miterlimit:10;" d="M289.381,105.733
		c-0.004-9.475-0.011-19.935-0.004-19.935c0-7.202,0.467-5.202,0.899-15.667c-5.425,4.607-12.386,3.119-19.874,6.576
		c5.112,0.648,4.824,9.721,4.824,9.721s0.01,0,0.023,0v18.188c-0.006,6.468-4.381,7.664-4.381,7.664s4.562,0,6.529,0
		c6,0,7.838,5.474,15.758-0.047C292.184,112.233,289.562,110.878,289.381,105.733z"/>
	
		<ellipse transform="matrix(0.3573 0.934 -0.934 0.3573 237.2215 -222.3207)" style="fill:#B2EDEA;stroke:#55C3C3;stroke-linejoin:bevel;stroke-miterlimit:10;" cx="280.146" cy="61.202" rx="6.817" ry="7.777"/>
</g>
<path style="fill:#B2EDEA;stroke:#55C3C3;stroke-linejoin:bevel;stroke-miterlimit:10;" d="M158.645,99.847
	c-0.004-9.475,0.053-16.85,0.06-16.85c0-9.641-9.361-13.02-17.274-13.02c0,0-23.735-0.951-23.735,8.771
	c0,7.921,14.593,8.929,14.593,0c0-6.868,2.978-6.805,5.498-6.805c7.129,0,6.769,8.604,6.769,8.604v0.429
	c-0.319,1.915-1.974,3.716-9.721,5.765c-6.265,1.656-18.19,4.753-18.19,14.762c0,15.124,22.048,14.928,28.776,6.357
	c2.772,6.186,13.464,7.307,19.129-0.615C163.396,107.678,158.645,109.208,158.645,99.847z M131.189,98.694
	c0,0,0.213-6.637,6.525-9.793c1.474-0.736,5.685-2.904,6.845-3.493l0.019,18.327c0,0.42,0.029,0.824,0.072,1.22
	C141.473,110.321,131.189,111.015,131.189,98.694z"/>
<path style="fill:#B2EDEA;stroke:#55C3C3;stroke-linejoin:bevel;stroke-miterlimit:10;" d="M103.099,44.304
	c-1.152-5.377-6.53-9.312-16.228-9.312c-16.322,0-22.179,19.395-23.332,27.555c-0.68,4.816-1.92,11.619-5.713,13.586
	c5.113,0.648,4.825,9.722,4.825,9.722s0.009-0.001,0.023-0.001v18.764c-0.006,6.468-4.38,7.664-4.38,7.664s2.405,0,4.476,0h2.053
	c6,0,7.837,5.474,15.758-0.047c-0.892,0-3.162-1.147-3.676-5.298V78.411c3.291-0.049,6.076-0.088,6.657-0.088
	c1.081-1.367,2.449-1.944,2.641-3.289c-1.16,0-6.586,0.146-9.298,0.221v-4.58h-0.081c-0.019-3.088-0.035-7.348-0.035-12.93
	c0-13.633,2.461-21.123,10.849-21.123c3.073,0,7.49,1.537,7.49,4.802c0,5.473-7.448,1.94-6.672,8.589
	C89.465,58.654,106.016,57.917,103.099,44.304z"/>
<path style="fill:#B2EDEA;stroke:#55C3C3;stroke-linejoin:bevel;stroke-miterlimit:10;" d="M133.425,41.473l-1.492-17.215
	c-0.039-2.035,0.604-2.671,1.043-4.489c-2.616,1.449-4.929,1.778-6.705,3.049c1.727,0.559,2.895,1.168,3.124,4.42l0.026-0.014
	l0.905,10.818c-3.922-4.483-9.887-11.876-8.321-13.701c-4.725,2.285-8.079,1.969-8.746,3.969c1.232-0.367,2.898,0.791,4.704,2.625
	l1.01,12.144c-3.858-4.459-9.864-11.763-9.238-13.327c-2.972,1.524-7.645,2.26-8.026,3.633c3.428-0.305,12.648,12.496,15.925,15.087
	c0.838-0.687,4.444-1.88,4.444-1.88l-1.047-12.141c3.03,3.77,6.004,8.1,7.677,9.422c0.838-0.685,4.801-2.311,4.801-2.311
	S133.474,41.524,133.425,41.473z"/>
<path style="fill:#B2EDEA;stroke:#55C3C3;stroke-linejoin:bevel;stroke-miterlimit:10;" d="M146.197,16.415
	c-5.073,1.084-11.088,7.201-9.144,14.441c1.942,7.237,9.258,7.771,13.792,6.514s6.515-4.763,6.629-5.867
	c-2.286,2.209-12.192,5.485-14.363-2.135c-2.172-7.619,0.286-10.633,2.057-11.276c3.353-1.22,7.506,5.143,4.153,7.468
	c-3.353,2.324-7.01,3.848-7.01,3.848l0.228,1.219c0,0,15.317-4.725,14.326-9.068C155.875,17.215,151.722,15.235,146.197,16.415z"/>
<path style="fill:#B2EDEA;stroke:#55C3C3;stroke-linejoin:bevel;stroke-miterlimit:10;" d="M267.572,17.39
	c-5.006-1.357-13.152,1.328-14.738,8.654s4.675,11.147,9.282,12.104c4.606,0.956,7.972-1.254,8.578-2.183
	c-3.044,0.918-13.351-0.703-11.794-8.471c1.557-7.77,5.12-9.324,6.99-9.085c3.539,0.448,4.319,8.007,0.275,8.54
	c-4.045,0.531-7.995,0.213-7.995,0.213l-0.355,1.188c0,0,15.782,2.809,16.89-1.506C275.811,22.528,273.023,18.866,267.572,17.39z"/>
<path style="fill:#B2EDEA;stroke:#55C3C3;stroke-linejoin:bevel;stroke-miterlimit:10;" d="M182.875,12.743
	c-5.185-0.041-11.773,4.02-11.444,11.507c0.329,7.488,7.357,9.593,12.055,9.347c4.699-0.246,7.393-3.24,7.742-4.293
	c-2.709,1.662-13.09,2.717-13.561-5.193c-0.469-7.91,2.013-9.492,3.84-9.954c2.22-0.56,4.81,0.658,3.285,2.716
	c-3.719,5.021,6.478,5.791,6.478,0.991C191.271,14.435,188.525,12.785,182.875,12.743z"/>
<path style="fill:#B2EDEA;stroke:#55C3C3;stroke-linejoin:bevel;stroke-miterlimit:10;" d="M157.005,9.101
	c1.626,0,3.149,1.219,3.911,6.857c0.758,5.603,2.337,18.135,0.763,18.847c1.981-0.356,2.336-0.407,4.166,0.151
	s4.573-0.964,5.08-1.625c-2.667,0.229-3.81-8.737-4.318-12.801c-0.507-4.064-2.133-15.951-1.118-17.17
	c-3.149,0.659-3.352,3.504-5.435,4.418C158.801,8.329,157.005,9.101,157.005,9.101z"/>
<path style="fill:#B2EDEA;stroke:#55C3C3;stroke-linejoin:bevel;stroke-miterlimit:10;" d="M206.133,11.081
	c-4.496-0.088-12.04,1.447-12.04,11.049s7.313,10.363,10.745,10.363c3.428,0,10.667-2.21,10.667-10.668
	C215.505,13.978,210.018,11.157,206.133,11.081z M204.914,30.944c-2.293,0-4.952-2.336-5.258-8.868
	c-0.382-8.2,3.105-9.47,5.715-9.47c2.317,0,4.275,2.604,4.57,9.213C210.247,28.658,207.447,30.944,204.914,30.944z"/>
<path style="fill:#B2EDEA;stroke:#55C3C3;stroke-linejoin:bevel;stroke-miterlimit:10;" d="M310.67,32.69
	c-3.949-2.146-11.355-4.252-15.771,4.273s1.729,12.566,4.775,14.144c3.043,1.577,10.488,2.944,14.377-4.565
	C317.662,39.572,314.087,34.545,310.67,32.69z M300.453,49.767c-2.035-1.055-3.323-4.352-0.59-10.293
	c3.434-7.456,7.112-6.98,9.431-5.781c2.057,1.068,2.598,4.279-0.181,10.284C306.24,50.19,302.702,50.931,300.453,49.767z"/>
<path style="fill:#B2EDEA;stroke:#55C3C3;stroke-linejoin:bevel;stroke-miterlimit:10;" d="M242.76,12.351
	c-3.105,0.365-5.18,2.33-6.102,3.406c-0.646-2.932-2.414-5.057-6.344-4.117c-2.718,0.65-4.52,1.83-5.556,2.707
	c0.261-1.478,0.644-2.568,1.259-3.078c-3.249,1.416-3.83,0.961-6.047,1.477c-1.332,0.311-2.699,1.404-2.699,1.404
	c1.598,0.299,2.17,1.443,2.108,3.252c-0.265,8.041-0.936,14.987-2.614,15.396c2.012,0.016,2.372,0.03,4.065,0.918
	c1.695,0.886,4.673-0.105,5.293-0.661c-2.664-0.268-2.136-9.29-1.885-13.378c0.056-0.919,0.115-1.796,0.188-2.617
	c0.216-1.47,2.486-3.171,4.771-2.98c3.047,0.254,2.438,5.843,1.879,13.208c-0.203,3.607-0.688,5.774-1.32,6.248
	c1.423-0.152,2.236-0.305,3.252,0.051c1.151,0.402,2.996,1.574,4.418,0.457c-1.878-1.27-0.812-8.992-0.506-13.716
	c0.03-0.482,0.046-0.972,0.045-1.46c0.328-2.711,2.561-3.948,4.678-3.771c3.049,0.254,2.439,5.842,1.879,13.208
	c-0.201,3.606-0.862,8.382-2.486,9.55c1.421-0.152,5.994-0.477,7.162-4.521c0.762-2.641,0.863-7.265,1.168-11.988
	C249.669,16.618,248.717,11.649,242.76,12.351z"/>
<path style="fill:#B2EDEA;stroke:#55C3C3;stroke-linejoin:bevel;stroke-miterlimit:10;" d="M294.268,25.378
	c1.097-2.294,2.176-4.201,2.961-4.463c-3.021-1.105-5.776,1.197-8.08,1.318c-1.365,0.074-3.477-0.174-3.477-0.174
	c1.381,0.858,2.195,3.487,0.93,6.57c-2.145,5.232-5.195,12.786-6.908,12.557c1.87,0.747,2.199,0.891,3.455,2.333
	c1.256,1.44,4.389,1.6,5.17,1.308c-2.383-1.217,1.388-9.43,3.107-13.146c0.661-1.432,1.449-3.282,2.256-5.044
	c1.55,0.782,3.016,1.519,3.367,1.679c0.068-0.597,0.973-0.359,1.072-1.08C297.57,26.964,295.756,26.091,294.268,25.378z"/>
<g>
	<path style="fill:#8B408F;stroke:#6C0082;stroke-miterlimit:10;" d="M344.608,107.988l0.352-8.456l1.994-8.205l2.847-5.2
		l3.144-3.006l4.036-0.877c2.253,1.503,3.291,1.884,3.95,2.131c0.446,0.164,3.451,4.759,3.451,4.759l1.92,6.515l1.029,7.453
		l-0.092,4.908L344.608,107.988z"/>
	<path style="fill:#8B408F;stroke:#6C0082;stroke-miterlimit:10;" d="M339.025,107.999l0.273-4.495l1.545-4.361l2.207-2.765
		l2.436-1.599l3.127-0.465c1.747,0.8,2.55,1,3.062,1.133c0.345,0.088,2.674,2.529,2.674,2.529l1.487,3.464l0.798,3.961l-0.071,2.608
		L339.025,107.999z"/>
	<path style="fill:#8B408F;stroke:#6C0082;stroke-miterlimit:10;" d="M351.11,107.996l0.279-5.644l1.582-5.477l2.259-3.471
		l2.493-2.007l3.2-0.584c1.788,1.004,2.611,1.256,3.134,1.422c0.354,0.11,2.737,3.177,2.737,3.177l1.523,4.348l0.816,4.974
		l-0.073,3.275L351.11,107.996z"/>
</g>
<polygon style="fill:#EA3B54;stroke:#FF807D;stroke-miterlimit:10;" points="5.979,104.099 10.274,98.036 14.932,94.849 
	20.469,91.911 27.145,91.974 32.371,92.724 39.409,95.036 44.429,100.599 47.688,106.911 48.154,111.724 4.634,111.724 "/>
<g>
	<polyline style="fill:none;stroke:#F7DF03;stroke-miterlimit:10;" points="96.3,93.599 96.3,101.599 95.634,109.432 
		96.134,117.599 	"/>
	<polygon style="fill:#FFFF00;stroke:#F7DF03;stroke-miterlimit:10;" points="95.029,86.139 97.842,86.014 100.467,87.639 
		102.029,90.326 102.029,93.764 100.404,96.076 97.279,97.264 93.842,96.951 90.404,93.576 90.529,89.139 92.904,86.764 	"/>
	<polygon style="fill:#FFFF00;stroke:#F7DF03;stroke-miterlimit:10;" points="93.395,83.426 94.97,82.262 97.115,82.18 
		99.062,83.124 100.396,85.108 100.356,87.074 99.014,88.973 96.908,90.127 93.614,89.515 91.963,86.904 92.412,84.611 	"/>
	<polygon style="fill:#FFFF00;stroke:#F7DF03;stroke-miterlimit:10;" points="97.979,83.596 96.872,84.334 95.413,84.319 
		94.124,83.613 93.283,82.224 93.375,80.89 94.35,79.647 95.817,78.933 98.032,79.457 99.066,81.283 98.685,82.825 	"/>
</g>
<g>
	<polyline style="fill:none;stroke:#F7DF03;stroke-miterlimit:10;" points="272.03,104.957 272.03,110.846 271.364,116.611 
		271.864,122.623 	"/>
	<polygon style="fill:#FFFF00;stroke:#F7DF03;stroke-miterlimit:10;" points="270.759,97.497 273.572,97.372 276.197,98.997 
		277.759,101.685 277.759,105.122 276.134,107.435 273.009,108.622 269.572,108.31 266.134,104.935 266.259,100.497 268.634,98.122 
			"/>
	<polygon style="fill:#FFFF00;stroke:#F7DF03;stroke-miterlimit:10;" points="269.125,94.784 270.7,93.62 272.845,93.538 
		274.792,94.482 276.126,96.467 276.086,98.433 274.744,100.331 272.638,101.485 269.344,100.873 267.693,98.263 268.142,95.97 	"/>
	<polygon style="fill:#FFFF00;stroke:#F7DF03;stroke-miterlimit:10;" points="273.709,94.954 272.602,95.692 271.143,95.678 
		269.854,94.972 269.013,93.582 269.105,92.248 270.08,91.006 271.547,90.291 273.762,90.815 274.796,92.642 274.415,94.184 	"/>
</g>
<g>
	<polyline style="fill:none;stroke:#F7DF03;stroke-miterlimit:10;" points="256.364,96.62 256.364,105.288 257.031,113.774 
		256.531,122.623 	"/>
	<polygon style="fill:#FFFF00;stroke:#F7DF03;stroke-miterlimit:10;" points="255.759,88.916 258.572,88.791 261.197,90.416 
		262.759,93.104 262.759,96.541 261.134,98.854 258.009,100.041 254.572,99.729 251.134,96.354 251.259,91.916 253.634,89.541 	"/>
	<polygon style="fill:#FFFF00;stroke:#F7DF03;stroke-miterlimit:10;" points="254.125,86.203 255.7,85.039 257.845,84.957 
		259.792,85.901 261.126,87.886 261.086,89.852 259.744,91.75 257.638,92.904 254.344,92.292 252.693,89.682 253.142,87.389 	"/>
	<polygon style="fill:#FFFF00;stroke:#F7DF03;stroke-miterlimit:10;" points="258.709,86.373 257.602,87.111 256.143,87.097 
		254.854,86.391 254.013,85.001 254.105,83.667 255.08,82.425 256.547,81.71 258.762,82.234 259.796,84.061 259.415,85.603 	"/>
</g>
<g>
	<polyline style="fill:none;stroke:#FF807D;stroke-miterlimit:10;" points="123.676,106.244 121.551,109.119 117.988,113.057 
		114.238,118.994 112.113,113.307 111.488,108.557 110.051,105.369 	"/>
	<polyline style="fill:none;stroke:#FF807D;stroke-miterlimit:10;" points="120.738,101.557 117.551,107.619 116.176,112.807 
		113.863,118.807 	"/>
	<polygon style="fill:#FF6228;stroke:#FF807D;stroke-miterlimit:10;" points="107.926,96.119 110.738,95.994 113.363,97.619 
		114.926,100.307 114.926,103.744 113.301,106.057 110.176,107.244 106.738,106.932 103.301,103.557 103.426,99.119 105.801,96.744 
			"/>
	<polygon style="fill:#FF6228;stroke:#FF807D;stroke-miterlimit:10;" points="118.613,97.369 120.301,96.182 122.863,96.369 
		124.676,97.869 124.488,100.369 123.551,102.307 120.863,102.369 119.113,101.869 117.801,99.807 	"/>
	<path style="fill:#FF6228;stroke:#FF807D;stroke-miterlimit:10;" d="M121.426,103.057l0.188,2.312l2.688,1.75l1.75-0.5l2.25-1.625
		l-0.062-1.938c0,0-0.625-1.938-1.25-2s-1.875-0.688-1.875-0.688l-2.562,0.938L121.426,103.057z"/>
</g>
<path style="fill:#B2EDEA;stroke:#55C3C3;stroke-linejoin:bevel;stroke-miterlimit:10;" d="M342.188,105.733
	c-0.004-9.475-0.012-25.887-0.005-25.887c0-7.202,0.324-27.378-9.469-31.986c0.145,15.556-7.057,11.523-10.082,17.71
	c5.473,3.456,4.824,16.179,4.824,10.994s0.023,28.052,0.023,28.052c-0.007,6.468-3.805,7.664-3.805,7.664s3.182,0,5.149,0
	c6.001,0,11.451,7.371,17.715,1.105C344.09,113.386,342.369,110.878,342.188,105.733z"/>
<g>
	<path style="fill:#8B408F;stroke:#6C0082;stroke-miterlimit:10;" d="M41.624,118.995l0.372-5.411l2.104-5.251l3.003-3.328
		l3.317-1.924l4.257-0.561c2.378,0.962,3.472,1.205,4.168,1.363c0.47,0.105,3.64,3.046,3.64,3.046l2.025,4.169l1.086,4.77
		l-0.097,3.141L41.624,118.995z"/>
	<path style="fill:#8B408F;stroke:#6C0082;stroke-miterlimit:10;" d="M25.624,119.002l0.401-2.795l2.269-2.712l3.238-1.719
		l3.576-0.994l4.59-0.289c2.564,0.497,3.744,0.622,4.494,0.704c0.507,0.055,3.925,1.573,3.925,1.573l2.184,2.153l1.171,2.463
		l-0.104,1.622L25.624,119.002z"/>
</g>
<g>
	<polyline style="fill:none;stroke:#FF807D;stroke-miterlimit:10;" points="55.409,106.496 57.534,109.371 61.097,113.309 
		64.847,119.246 66.972,113.559 67.597,108.809 69.034,105.621 	"/>
	<polyline style="fill:none;stroke:#FF807D;stroke-miterlimit:10;" points="58.347,101.809 61.534,107.871 62.909,113.059 
		65.222,119.059 68.784,116.08 71.368,111.663 72.951,110.663 	"/>
	<polygon style="fill:#FF3047;stroke:#FF807D;stroke-miterlimit:10;" points="70.864,97.736 68.75,97.643 66.777,98.864 
		65.602,100.885 65.602,103.469 66.824,105.207 69.173,106.1 71.757,105.865 74.341,103.328 74.248,99.992 72.462,98.206 	"/>
	<polygon style="fill:#FF3047;stroke:#FF807D;stroke-miterlimit:10;" points="73.478,107.812 72.083,107.749 70.781,108.555 
		70.005,109.889 70.005,111.592 70.811,112.739 72.362,113.328 74.066,113.174 75.771,111.5 75.709,109.299 74.532,108.121 	"/>
	<polygon style="fill:#FF3047;stroke:#FF807D;stroke-miterlimit:10;" points="61.72,96.715 59.229,94.963 55.448,95.239 
		52.774,97.452 53.051,101.142 54.435,104 58.399,104.093 60.982,103.354 62.919,100.312 	"/>
	<path style="fill:#FF3047;stroke:#FF807D;stroke-miterlimit:10;" d="M58.402,105.31l-0.187,2.308l-2.682,1.746l-1.746-0.499
		l-2.246-1.621l0.063-1.934c0,0,0.624-1.933,1.247-1.995s1.871-0.686,1.871-0.686l2.557,0.936L58.402,105.31z"/>
</g>
<g>
	<polyline style="fill:none;stroke:#FF807D;stroke-miterlimit:10;" points="286.591,99.616 288.716,102.491 292.278,106.429 
		296.028,112.366 298.153,106.679 298.778,101.929 300.216,98.741 	"/>
	<polyline style="fill:none;stroke:#FF807D;stroke-miterlimit:10;" points="289.528,94.929 292.716,100.991 294.091,106.179 
		296.403,112.179 299.966,109.2 302.549,104.783 304.132,103.783 	"/>
	<polygon style="fill:#F9697E;stroke:#FF807D;stroke-miterlimit:10;" points="302.046,90.856 299.932,90.763 297.958,91.984 
		296.784,94.005 296.784,96.589 298.005,98.327 300.354,99.22 302.939,98.985 305.523,96.448 305.429,93.112 303.644,91.326 	"/>
	<polygon style="fill:#F9697E;stroke:#FF807D;stroke-miterlimit:10;" points="304.66,100.932 303.264,100.869 301.962,101.675 
		301.187,103.009 301.187,104.712 301.993,105.859 303.543,106.448 305.248,106.294 306.953,104.62 306.891,102.419 
		305.713,101.241 	"/>
	<polygon style="fill:#F9697E;stroke:#FF807D;stroke-miterlimit:10;" points="292.901,89.835 290.411,88.083 286.63,88.359 
		283.956,90.572 284.232,94.262 285.616,97.12 289.581,97.213 292.164,96.475 294.101,93.432 	"/>
	<path style="fill:#F9697E;stroke:#FF807D;stroke-miterlimit:10;" d="M289.583,98.43l-0.187,2.308l-2.682,1.746l-1.746-0.499
		l-2.246-1.621l0.063-1.934c0,0,0.624-1.933,1.247-1.995s1.871-0.686,1.871-0.686l2.557,0.936L289.583,98.43z"/>
</g>
<path style="fill:#EA3B54;stroke:#FF807D;stroke-miterlimit:10;" d="M358.72,114.428l0.507-5.411l2.873-5.251l4.102-3.328
	l4.529-1.924l5.812-0.561c3.247,0.962,4.742,1.205,5.692,1.363c0.641,0.105,4.971,3.046,4.971,3.046l2.766,4.169l1.482,4.77
	l-0.133,3.141L358.72,114.428z"/>
</svg>
